<?xml version="1.0" encoding="UTF-8" standalone="no"?>
<!DOCTYPE svg PUBLIC "-//W3C//DTD SVG 1.1//EN" "http://www.w3.org/Graphics/SVG/1.1/DTD/svg11.dtd">
<svg width="100%" height="100%" viewBox="0 0 1078 520" version="1.1" xmlns="http://www.w3.org/2000/svg" xmlns:xlink="http://www.w3.org/1999/xlink" xml:space="preserve" xmlns:serif="http://www.serif.com/" style="fill-rule:evenodd;clip-rule:evenodd;stroke-linejoin:round;stroke-miterlimit:2;">
    <g transform="matrix(1.33333,0,0,1.33333,0,0)">
        <g id="layer1" transform="matrix(1,0,0,1,-85.9467,-135.539)">
            <rect id="path16973" x="272.18" y="396.326" width="20.566" height="116.058" style="fill:rgb(247,209,0);fill-rule:nonzero;"/>
            <rect id="path16975" x="272.18" y="279.851" width="20.566" height="116.461" style="fill:rgb(227,0,27);fill-rule:nonzero;"/>
            <rect id="path16977" x="272.18" y="164.168" width="20.566" height="116.086" style="fill-rule:nonzero;"/>
            <path id="path16979" d="M207.982,183.831C207.982,177.216 203.257,171.978 201.451,170.505L200.339,170.783C202.145,172.978 205.202,176.661 205.202,181.538C205.202,191.126 195.058,199.45 183.525,199.603C183.664,200.589 183.664,201.465 183.664,202.215C183.664,203.577 183.525,204.925 183.386,206.231C196.448,205.995 207.982,195.323 207.982,183.831ZM189.917,263.232C184.359,263.232 183.108,262.634 181.579,262.634C180.607,262.634 179.773,262.732 179.773,264.066C179.773,265.01 180.746,266.372 181.718,267.081C183.108,265.775 184.914,265.483 187.833,265.483C189.222,265.483 191.029,265.747 191.862,265.858C191.723,266.678 191.584,267.72 191.584,269.179L191.584,271.806C191.584,275.113 191.168,276.864 189.917,278.198C190.195,278.35 190.89,278.489 191.307,278.489C193.391,278.489 193.947,277.392 193.947,271.819C193.947,270.138 194.086,268.582 194.086,268.179C197.143,270.458 200.2,274.543 200.2,277.489C201.173,276.989 202.284,275.516 202.284,274.404C202.284,272.389 198.949,269.402 195.336,265.789C195.892,265.664 197.143,265.288 198.254,265.288C201.034,265.288 203.396,265.747 204.647,267.303C205.202,266.747 205.619,265.038 205.619,264.066C205.619,262.398 204.647,262.454 203.952,262.454C200.895,262.454 197.282,262.912 194.642,263.357C193.669,262.065 187.555,253.81 186.026,249.405C185.47,249.239 185.192,249.114 184.359,249.114C182.969,249.114 182.552,250.142 182.135,251.545C185.609,255.631 188.805,260.077 189.917,263.232ZM156.428,251.545C156.011,250.142 155.733,249.114 154.205,249.114C153.51,249.114 153.093,249.239 152.676,249.405C151.009,253.81 145.033,262.065 144.061,263.357C141.42,262.912 137.669,262.454 134.75,262.454C134.056,262.454 133.083,262.398 133.083,264.066C133.083,265.038 133.5,266.747 134.056,267.303C135.306,265.747 137.53,265.288 140.448,265.288C141.42,265.288 142.81,265.664 143.227,265.789C139.753,269.402 136.418,272.389 136.418,274.404C136.418,275.516 137.53,276.989 138.502,277.489C138.502,274.543 141.559,270.458 144.616,268.179C144.616,268.582 144.755,270.138 144.755,271.819C144.755,277.392 145.172,278.489 147.396,278.489C147.813,278.489 148.368,278.35 148.646,278.198C147.535,276.864 147.118,275.113 147.118,271.806L147.118,269.179C147.118,267.72 146.979,266.678 146.84,265.858C147.674,265.747 149.48,265.483 150.87,265.483C153.788,265.483 155.594,265.775 156.845,267.081C157.818,266.372 158.929,265.01 158.929,264.066C158.929,262.732 157.956,262.634 156.984,262.634C155.594,262.634 154.344,263.232 148.785,263.232C149.897,260.077 153.093,255.631 156.428,251.545ZM133.361,181.538C133.361,176.661 136.557,172.978 138.363,170.783L137.113,170.505C135.445,171.978 130.721,177.216 130.721,183.831C130.721,195.406 142.254,206.148 155.594,206.231C155.455,204.98 155.316,203.646 155.316,202.215C155.316,201.326 155.316,200.436 155.455,199.616C143.783,199.616 133.361,191.21 133.361,181.538ZM168.934,172.617C169.629,171.227 170.463,169.588 170.463,167.767C170.463,162.779 166.294,160.416 160.736,160.416C157.818,160.416 156.428,161.25 156.428,162.223C156.428,163.195 157.262,165.183 157.679,165.808C158.651,165.349 160.597,164.863 161.708,164.863C165.46,164.863 168.378,169.101 168.934,172.617ZM171.713,166.197C175.048,166.836 177.272,162.64 174.076,161.945C174.493,163.334 172.408,164.307 172.408,164.307C172.408,164.307 171.713,162.501 172.686,161.389C170.741,160.416 170.324,161.528 170.324,162.779C171.019,163.751 171.574,164.905 171.713,166.197ZM182.274,194.711C182.83,194.739 183.247,194.767 183.803,194.767C192.974,194.767 202.145,188.847 202.145,181.246C202.145,177.189 200.2,174.354 197.977,171.213C196.726,171.436 195.475,171.561 194.503,171.561C190.334,171.561 188.111,169.337 187.972,167.156C187.972,165.183 189.5,163.751 192.001,163.751C195.892,163.751 202.979,167.309 210.066,167.309C209.371,167.823 208.121,168.379 206.731,168.907C210.9,172.645 213.679,177.661 214.791,183.011L225.629,200.381C227.436,203.285 231.327,208.982 237.024,213.443C230.076,213.443 225.351,213.61 219.515,204.216L213.957,195.309C213.54,196.462 212.984,197.588 212.428,198.685L223.406,216.403C225.351,219.335 229.103,224.99 234.94,229.465C227.992,229.465 223.267,229.632 217.292,220.238L207.843,204.994C207.148,205.745 206.314,206.481 205.619,207.204L218.959,228.714C220.905,231.66 224.657,237.288 230.493,241.763C223.406,241.763 218.82,241.929 212.845,232.536L199.783,211.567C198.949,212.123 197.977,212.637 197.143,213.137L213.123,238.733C214.93,241.665 218.681,247.307 224.518,251.795C217.57,251.795 212.845,251.948 207.009,242.555L190.473,216.208C189.5,216.583 188.527,216.931 187.555,217.25L206.175,247.043C207.982,249.933 211.872,255.659 217.57,260.091C210.622,260.091 205.897,260.258 200.061,250.864L180.19,219.126L179.634,219.224C179.078,220.947 178.661,222.545 178.661,224.143C178.661,234.12 185.192,242.93 193.113,249.725C192.557,249.947 191.723,250.031 190.89,250.031C189.222,250.031 188.249,249.933 187.416,249.808C189.361,253.949 193.252,259.285 195.197,262.051C197.699,261.592 201.451,261.231 203.952,261.231C206.453,261.231 206.731,262.732 206.731,264.066C206.731,266.4 205.758,268.262 204.369,269.29C203.952,268.095 202.979,266.511 198.254,266.511L197.838,266.525C199.227,268.068 203.535,271.569 203.535,274.404C203.535,276.266 201.451,279.059 198.81,279.059C198.949,278.462 198.949,277.906 198.949,277.489C198.949,275.21 196.865,272.542 195.197,270.68L195.197,271.819C195.197,277.211 194.642,279.698 191.307,279.698C189.639,279.698 188.388,278.781 187.972,278.503C190.195,276.447 190.334,274.835 190.334,271.806L190.334,269.179C190.334,268.484 190.334,267.581 190.473,266.914C189.222,266.747 188.805,266.747 187.833,266.747C187.833,266.747 182.969,266.358 181.718,268.887C180.468,267.692 178.522,265.969 178.522,264.066C178.522,262.829 179.078,261.411 181.579,261.411C182.552,261.411 185.609,262.009 188.111,262.009C187.416,260.508 184.359,256.131 181.857,252.949C181.44,254.172 180.746,255.52 179.495,256.603C179.217,254.561 178.105,248.113 174.909,244.333C174.493,246.876 173.937,249.503 173.937,255.019C173.937,268.443 177.272,278.364 184.081,280.254C183.108,281.811 181.302,283.214 179.356,283.214C176.855,283.214 175.465,280.365 174.076,277.683C173.381,279.671 171.297,284.506 169.351,284.506C167.267,284.506 165.321,279.671 164.627,277.683C163.237,280.365 161.847,283.214 159.346,283.214C157.401,283.214 155.455,281.811 154.621,280.254C161.43,278.364 164.627,268.443 164.627,255.019C164.627,249.503 164.21,246.876 163.793,244.333C160.597,248.113 159.346,254.561 159.207,256.603C157.818,255.52 157.262,254.172 156.845,252.949C154.205,256.131 151.286,260.508 150.592,262.009C153.093,262.009 156.15,261.411 156.984,261.411C159.485,261.411 160.18,262.829 160.18,264.066C160.18,265.969 158.234,267.692 156.845,268.887C155.733,266.358 150.87,266.747 150.87,266.747C149.897,266.747 149.48,266.747 148.229,266.914C148.229,267.581 148.368,268.484 148.229,269.179L148.229,271.806C148.229,274.835 148.368,276.447 150.592,278.503C150.175,278.781 149.063,279.698 147.396,279.698C143.922,279.698 143.505,277.211 143.505,271.819L143.505,270.68C141.837,272.542 139.753,275.21 139.753,277.489C139.753,277.906 139.753,278.462 139.892,279.059C137.252,279.059 135.167,276.266 135.167,274.404C135.167,271.569 139.475,268.068 140.865,266.525L140.448,266.511C135.584,266.511 134.75,268.095 134.195,269.29C132.944,268.262 131.832,266.4 131.832,264.066C131.832,262.732 132.11,261.231 134.75,261.231C137.113,261.231 140.865,261.592 143.505,262.051C145.45,259.285 149.341,253.949 151.147,249.808C150.453,249.933 149.341,250.031 147.813,250.031C146.979,250.031 146.145,249.947 145.589,249.725C153.51,242.93 160.041,234.12 160.041,224.143C160.041,222.545 159.624,220.947 159.068,219.224L158.512,219.126L138.641,250.864C132.666,260.258 128.08,260.091 120.994,260.091C126.83,255.659 130.721,249.933 132.527,247.043L151.147,217.25C150.175,216.931 149.063,216.583 148.09,216.208L131.693,242.555C125.718,251.948 121.132,251.795 114.046,251.795C119.882,247.307 123.773,241.665 125.579,238.733L141.559,213.137C140.587,212.637 139.753,212.123 138.919,211.567L125.718,232.536C119.882,241.929 115.157,241.763 108.209,241.763C114.046,237.288 117.797,231.66 119.604,228.714L133.083,207.204C132.249,206.481 131.554,205.745 130.86,204.994L121.271,220.238C115.435,229.632 110.711,229.465 103.763,229.465C109.599,224.99 113.351,219.335 115.157,216.403L126.274,198.685C125.718,197.588 125.162,196.462 124.745,195.309L119.187,204.216C113.212,213.61 108.626,213.443 101.539,213.443C107.376,208.982 111.266,203.285 113.073,200.381L123.912,183.011C125.023,177.661 127.802,172.645 131.832,168.907C130.443,168.379 129.331,167.823 128.636,167.309C135.723,167.309 142.81,163.751 146.562,163.751C149.063,163.751 150.731,165.183 150.731,167.156C150.592,169.337 148.229,171.561 144.061,171.561C143.227,171.561 141.976,171.436 140.587,171.213C138.363,174.354 136.557,177.189 136.557,181.246C136.557,188.847 145.728,194.767 154.899,194.767C155.316,194.767 155.872,194.739 156.428,194.711C158.234,188.555 161.986,184.512 165.182,180.565C161.43,179.217 157.262,175.702 157.262,174.104C157.818,173.826 164.904,176.063 165.599,176.258C165.738,176.299 165.877,176.313 166.155,176.258C166.989,176.007 167.684,174.743 167.684,174.604C166.85,174.479 162.403,173.909 159.485,172.797C157.123,171.95 155.872,170.421 155.872,169.838C156.706,169.713 159.485,171.199 163.654,171.199C165.182,171.199 165.46,171.13 166.989,170.949C165.877,168.406 163.932,166.266 161.708,166.266C160.736,166.266 158.79,166.822 157.123,167.656C156.011,165.863 154.899,163.473 154.899,162.223C154.899,160.694 156.428,158.888 160.736,158.888C161.847,158.888 162.959,159.027 164.071,159.166C164.765,159.305 165.599,159.583 166.294,159.86C166.155,159.721 166.155,159.444 166.155,159.305C166.155,158.749 166.711,158.054 168.656,158.054C172.269,158.054 175.743,159.166 180.19,159.166C181.302,159.166 182.135,159.166 182.83,158.888C182.413,159.86 181.302,161.111 180.051,162.084C180.746,163.056 182.691,165.391 182.691,169.115C182.691,175.09 178.661,180.023 178.661,186.068C178.661,189.653 181.44,192.821 182.274,194.711"/>
            <g transform="matrix(5.4878,0,0,5.4878,-1054.08,-315.054)">
                <g transform="matrix(12,0,0,12,248.656,97.2334)">
                    <path d="M0.352,-0.382C0.388,-0.393 0.416,-0.41 0.437,-0.435C0.458,-0.459 0.468,-0.489 0.468,-0.525C0.468,-0.584 0.449,-0.628 0.411,-0.657C0.373,-0.686 0.323,-0.7 0.26,-0.7L0.08,-0.7L0.08,0L0.27,0C0.315,0 0.356,-0.008 0.392,-0.023C0.427,-0.038 0.456,-0.06 0.477,-0.091C0.498,-0.121 0.508,-0.159 0.508,-0.205C0.508,-0.256 0.494,-0.296 0.465,-0.325C0.436,-0.354 0.399,-0.373 0.352,-0.382ZM0.165,-0.343L0.27,-0.343C0.315,-0.343 0.352,-0.332 0.381,-0.309C0.409,-0.286 0.423,-0.253 0.423,-0.21C0.423,-0.167 0.409,-0.134 0.381,-0.111C0.352,-0.087 0.315,-0.075 0.27,-0.075L0.165,-0.075L0.165,-0.343ZM0.165,-0.417L0.165,-0.625L0.26,-0.625C0.295,-0.625 0.325,-0.616 0.348,-0.598C0.371,-0.579 0.383,-0.553 0.383,-0.52C0.383,-0.487 0.371,-0.462 0.348,-0.444C0.325,-0.426 0.295,-0.417 0.26,-0.417L0.165,-0.417Z" style="fill-rule:nonzero;"/>
                </g>
                <g transform="matrix(12,0,0,12,255.352,97.2334)">
                    <path d="M0.155,-0.18L0.155,-0.46L0.075,-0.46L0.075,-0.17C0.075,-0.111 0.09,-0.066 0.119,-0.036C0.148,-0.005 0.186,0.01 0.233,0.01C0.263,0.01 0.29,0.003 0.314,-0.013C0.337,-0.028 0.356,-0.048 0.37,-0.073L0.37,0L0.45,0L0.45,-0.46L0.37,-0.46L0.37,-0.18C0.37,-0.147 0.359,-0.12 0.338,-0.098C0.317,-0.076 0.288,-0.065 0.253,-0.065C0.188,-0.065 0.155,-0.103 0.155,-0.18Z" style="fill-rule:nonzero;"/>
                </g>
                <g transform="matrix(12,0,0,12,261.652,97.2334)">
                    <path d="M0.37,-0.28L0.37,0L0.45,0L0.45,-0.29C0.45,-0.349 0.436,-0.394 0.407,-0.425C0.378,-0.455 0.339,-0.47 0.292,-0.47C0.262,-0.47 0.235,-0.463 0.212,-0.448C0.188,-0.432 0.169,-0.412 0.155,-0.387L0.155,-0.46L0.075,-0.46L0.075,0L0.155,0L0.155,-0.28C0.155,-0.313 0.166,-0.341 0.188,-0.363C0.209,-0.384 0.237,-0.395 0.272,-0.395C0.337,-0.395 0.37,-0.357 0.37,-0.28Z" style="fill-rule:nonzero;"/>
                </g>
                <g transform="matrix(12,0,0,12,267.952,97.2334)">
                    <path d="M0.116,-0.23C0.116,-0.265 0.123,-0.295 0.138,-0.32C0.152,-0.345 0.171,-0.363 0.195,-0.376C0.219,-0.389 0.245,-0.395 0.273,-0.395C0.296,-0.395 0.319,-0.389 0.342,-0.376C0.365,-0.363 0.383,-0.345 0.398,-0.32C0.413,-0.295 0.42,-0.265 0.42,-0.23C0.42,-0.195 0.413,-0.165 0.398,-0.14C0.383,-0.115 0.365,-0.097 0.342,-0.084C0.319,-0.071 0.296,-0.065 0.273,-0.065C0.245,-0.065 0.219,-0.071 0.195,-0.084C0.171,-0.097 0.152,-0.115 0.138,-0.14C0.123,-0.165 0.116,-0.195 0.116,-0.23ZM0.035,-0.23C0.035,-0.181 0.045,-0.138 0.066,-0.102C0.087,-0.066 0.114,-0.038 0.149,-0.019C0.184,0 0.222,0.01 0.263,0.01C0.297,0.01 0.327,0.002 0.355,-0.013C0.382,-0.028 0.403,-0.05 0.42,-0.079L0.42,0L0.5,0L0.5,-0.78L0.42,-0.78L0.42,-0.381C0.403,-0.41 0.382,-0.432 0.355,-0.447C0.327,-0.462 0.297,-0.47 0.263,-0.47C0.222,-0.47 0.184,-0.46 0.149,-0.441C0.114,-0.422 0.087,-0.394 0.066,-0.359C0.045,-0.323 0.035,-0.28 0.035,-0.23Z" style="fill-rule:nonzero;"/>
                </g>
                <g transform="matrix(12,0,0,12,274.792,97.2334)">
                    <path d="M0.117,-0.21L0.479,-0.21C0.48,-0.214 0.48,-0.218 0.48,-0.222L0.48,-0.234C0.48,-0.283 0.471,-0.325 0.453,-0.36C0.435,-0.395 0.41,-0.422 0.377,-0.441C0.344,-0.46 0.306,-0.47 0.263,-0.47C0.224,-0.47 0.188,-0.462 0.157,-0.446C0.125,-0.43 0.099,-0.408 0.079,-0.379C0.059,-0.35 0.046,-0.317 0.039,-0.279C0.038,-0.271 0.037,-0.263 0.036,-0.255C0.035,-0.247 0.035,-0.239 0.035,-0.23C0.035,-0.184 0.045,-0.143 0.064,-0.107C0.083,-0.07 0.109,-0.042 0.142,-0.021C0.175,0 0.212,0.01 0.253,0.01C0.293,0.01 0.326,0.005 0.353,-0.005C0.38,-0.014 0.402,-0.028 0.421,-0.046C0.44,-0.063 0.457,-0.084 0.472,-0.107L0.407,-0.148C0.392,-0.123 0.372,-0.103 0.349,-0.088C0.325,-0.073 0.296,-0.065 0.263,-0.065C0.221,-0.065 0.187,-0.078 0.161,-0.103C0.135,-0.128 0.12,-0.163 0.117,-0.21ZM0.119,-0.278C0.123,-0.315 0.139,-0.345 0.167,-0.367C0.194,-0.389 0.226,-0.4 0.263,-0.4C0.303,-0.4 0.334,-0.389 0.355,-0.366C0.376,-0.343 0.389,-0.314 0.393,-0.278L0.119,-0.278Z" style="fill-rule:nonzero;"/>
                </g>
                <g transform="matrix(12,0,0,12,280.972,97.2334)">
                    <path d="M0.088,-0.162L0.025,-0.123C0.042,-0.086 0.068,-0.054 0.101,-0.029C0.134,-0.003 0.172,0.01 0.215,0.01C0.26,0.01 0.297,-0.001 0.328,-0.023C0.358,-0.045 0.373,-0.081 0.373,-0.13C0.373,-0.156 0.367,-0.178 0.355,-0.195C0.343,-0.212 0.327,-0.227 0.308,-0.239C0.289,-0.251 0.268,-0.261 0.246,-0.27C0.229,-0.277 0.212,-0.284 0.195,-0.291C0.177,-0.297 0.162,-0.305 0.15,-0.314C0.138,-0.323 0.132,-0.334 0.132,-0.349C0.132,-0.367 0.139,-0.38 0.153,-0.387C0.167,-0.394 0.184,-0.397 0.204,-0.397C0.223,-0.397 0.242,-0.391 0.261,-0.38C0.28,-0.368 0.294,-0.354 0.305,-0.339L0.369,-0.38C0.355,-0.405 0.333,-0.427 0.303,-0.444C0.273,-0.461 0.24,-0.47 0.203,-0.47C0.178,-0.47 0.155,-0.466 0.132,-0.457C0.109,-0.448 0.091,-0.435 0.076,-0.417C0.061,-0.398 0.054,-0.375 0.054,-0.346C0.054,-0.317 0.061,-0.295 0.074,-0.278C0.087,-0.261 0.104,-0.248 0.125,-0.239C0.145,-0.229 0.165,-0.22 0.186,-0.211C0.204,-0.204 0.221,-0.197 0.237,-0.189C0.252,-0.181 0.265,-0.172 0.275,-0.161C0.285,-0.15 0.29,-0.137 0.29,-0.121C0.29,-0.102 0.283,-0.088 0.269,-0.079C0.254,-0.07 0.236,-0.065 0.215,-0.065C0.193,-0.065 0.17,-0.074 0.147,-0.093C0.124,-0.111 0.104,-0.134 0.088,-0.162Z" style="fill-rule:nonzero;"/>
                </g>
                <g transform="matrix(12,0,0,12,285.808,97.2334)">
                    <path d="M0.705,-0.29C0.705,-0.349 0.692,-0.394 0.667,-0.425C0.641,-0.455 0.604,-0.47 0.557,-0.47C0.526,-0.47 0.499,-0.462 0.474,-0.447C0.449,-0.432 0.43,-0.411 0.415,-0.384C0.393,-0.441 0.349,-0.47 0.282,-0.47C0.253,-0.47 0.228,-0.463 0.207,-0.449C0.186,-0.435 0.168,-0.416 0.155,-0.393L0.155,-0.46L0.075,-0.46L0.075,0L0.155,0L0.155,-0.28C0.155,-0.313 0.164,-0.341 0.183,-0.363C0.201,-0.384 0.227,-0.395 0.262,-0.395C0.295,-0.395 0.318,-0.385 0.331,-0.366C0.343,-0.347 0.35,-0.318 0.35,-0.28L0.35,0L0.43,0L0.43,-0.28C0.43,-0.313 0.439,-0.341 0.458,-0.363C0.476,-0.384 0.502,-0.395 0.537,-0.395C0.57,-0.395 0.592,-0.385 0.606,-0.366C0.619,-0.347 0.625,-0.318 0.625,-0.28L0.625,0L0.705,0L0.705,-0.29Z" style="fill-rule:nonzero;"/>
                </g>
                <g transform="matrix(12,0,0,12,295.168,97.2334)">
                    <path d="M0.09,-0.46L0.09,0L0.17,0L0.17,-0.46L0.09,-0.46ZM0.075,-0.65C0.075,-0.635 0.081,-0.623 0.092,-0.612C0.102,-0.6 0.115,-0.595 0.13,-0.595C0.145,-0.595 0.158,-0.6 0.169,-0.612C0.18,-0.623 0.185,-0.635 0.185,-0.65C0.185,-0.665 0.18,-0.678 0.169,-0.689C0.158,-0.7 0.145,-0.705 0.13,-0.705C0.115,-0.705 0.102,-0.7 0.092,-0.689C0.081,-0.678 0.075,-0.665 0.075,-0.65Z" style="fill-rule:nonzero;"/>
                </g>
                <g transform="matrix(12,0,0,12,298.288,97.2334)">
                    <path d="M0.37,-0.28L0.37,0L0.45,0L0.45,-0.29C0.45,-0.349 0.436,-0.394 0.407,-0.425C0.378,-0.455 0.339,-0.47 0.292,-0.47C0.262,-0.47 0.235,-0.463 0.212,-0.448C0.188,-0.432 0.169,-0.412 0.155,-0.387L0.155,-0.46L0.075,-0.46L0.075,0L0.155,0L0.155,-0.28C0.155,-0.313 0.166,-0.341 0.188,-0.363C0.209,-0.384 0.237,-0.395 0.272,-0.395C0.337,-0.395 0.37,-0.357 0.37,-0.28Z" style="fill-rule:nonzero;"/>
                </g>
                <g transform="matrix(12,0,0,12,304.588,97.2334)">
                    <path d="M0.09,-0.46L0.09,0L0.17,0L0.17,-0.46L0.09,-0.46ZM0.075,-0.65C0.075,-0.635 0.081,-0.623 0.092,-0.612C0.102,-0.6 0.115,-0.595 0.13,-0.595C0.145,-0.595 0.158,-0.6 0.169,-0.612C0.18,-0.623 0.185,-0.635 0.185,-0.65C0.185,-0.665 0.18,-0.678 0.169,-0.689C0.158,-0.7 0.145,-0.705 0.13,-0.705C0.115,-0.705 0.102,-0.7 0.092,-0.689C0.081,-0.678 0.075,-0.665 0.075,-0.65Z" style="fill-rule:nonzero;"/>
                </g>
                <g transform="matrix(12,0,0,12,307.708,97.2334)">
                    <path d="M0.088,-0.162L0.025,-0.123C0.042,-0.086 0.068,-0.054 0.101,-0.029C0.134,-0.003 0.172,0.01 0.215,0.01C0.26,0.01 0.297,-0.001 0.328,-0.023C0.358,-0.045 0.373,-0.081 0.373,-0.13C0.373,-0.156 0.367,-0.178 0.355,-0.195C0.343,-0.212 0.327,-0.227 0.308,-0.239C0.289,-0.251 0.268,-0.261 0.246,-0.27C0.229,-0.277 0.212,-0.284 0.195,-0.291C0.177,-0.297 0.162,-0.305 0.15,-0.314C0.138,-0.323 0.132,-0.334 0.132,-0.349C0.132,-0.367 0.139,-0.38 0.153,-0.387C0.167,-0.394 0.184,-0.397 0.204,-0.397C0.223,-0.397 0.242,-0.391 0.261,-0.38C0.28,-0.368 0.294,-0.354 0.305,-0.339L0.369,-0.38C0.355,-0.405 0.333,-0.427 0.303,-0.444C0.273,-0.461 0.24,-0.47 0.203,-0.47C0.178,-0.47 0.155,-0.466 0.132,-0.457C0.109,-0.448 0.091,-0.435 0.076,-0.417C0.061,-0.398 0.054,-0.375 0.054,-0.346C0.054,-0.317 0.061,-0.295 0.074,-0.278C0.087,-0.261 0.104,-0.248 0.125,-0.239C0.145,-0.229 0.165,-0.22 0.186,-0.211C0.204,-0.204 0.221,-0.197 0.237,-0.189C0.252,-0.181 0.265,-0.172 0.275,-0.161C0.285,-0.15 0.29,-0.137 0.29,-0.121C0.29,-0.102 0.283,-0.088 0.269,-0.079C0.254,-0.07 0.236,-0.065 0.215,-0.065C0.193,-0.065 0.17,-0.074 0.147,-0.093C0.124,-0.111 0.104,-0.134 0.088,-0.162Z" style="fill-rule:nonzero;"/>
                </g>
                <g transform="matrix(12,0,0,12,312.544,97.2334)">
                    <path d="M0.08,-0.62L0.08,-0.46L0.005,-0.46L0.005,-0.385L0.08,-0.385L0.08,0L0.16,0L0.16,-0.385L0.235,-0.385L0.235,-0.46L0.16,-0.46L0.16,-0.62L0.08,-0.62Z" style="fill-rule:nonzero;"/>
                </g>
                <g transform="matrix(12,0,0,12,315.424,97.2334)">
                    <path d="M0.117,-0.21L0.479,-0.21C0.48,-0.214 0.48,-0.218 0.48,-0.222L0.48,-0.234C0.48,-0.283 0.471,-0.325 0.453,-0.36C0.435,-0.395 0.41,-0.422 0.377,-0.441C0.344,-0.46 0.306,-0.47 0.263,-0.47C0.224,-0.47 0.188,-0.462 0.157,-0.446C0.125,-0.43 0.099,-0.408 0.079,-0.379C0.059,-0.35 0.046,-0.317 0.039,-0.279C0.038,-0.271 0.037,-0.263 0.036,-0.255C0.035,-0.247 0.035,-0.239 0.035,-0.23C0.035,-0.184 0.045,-0.143 0.064,-0.107C0.083,-0.07 0.109,-0.042 0.142,-0.021C0.175,0 0.212,0.01 0.253,0.01C0.293,0.01 0.326,0.005 0.353,-0.005C0.38,-0.014 0.402,-0.028 0.421,-0.046C0.44,-0.063 0.457,-0.084 0.472,-0.107L0.407,-0.148C0.392,-0.123 0.372,-0.103 0.349,-0.088C0.325,-0.073 0.296,-0.065 0.263,-0.065C0.221,-0.065 0.187,-0.078 0.161,-0.103C0.135,-0.128 0.12,-0.163 0.117,-0.21ZM0.119,-0.278C0.123,-0.315 0.139,-0.345 0.167,-0.367C0.194,-0.389 0.226,-0.4 0.263,-0.4C0.303,-0.4 0.334,-0.389 0.355,-0.366C0.376,-0.343 0.389,-0.314 0.393,-0.278L0.119,-0.278Z" style="fill-rule:nonzero;"/>
                </g>
                <g transform="matrix(12,0,0,12,321.604,97.2334)">
                    <path d="M0.294,-0.372L0.338,-0.438C0.326,-0.451 0.313,-0.459 0.299,-0.464C0.284,-0.468 0.269,-0.47 0.252,-0.47C0.235,-0.47 0.218,-0.464 0.201,-0.453C0.184,-0.442 0.168,-0.426 0.155,-0.407L0.155,-0.46L0.075,-0.46L0.075,0L0.155,0L0.155,-0.28C0.155,-0.313 0.16,-0.341 0.171,-0.363C0.182,-0.384 0.202,-0.395 0.232,-0.395C0.245,-0.395 0.256,-0.393 0.265,-0.39C0.274,-0.386 0.283,-0.38 0.294,-0.372Z" style="fill-rule:nonzero;"/>
                </g>
                <g transform="matrix(12,0,0,12,325.72,97.2334)">
                    <path d="M0.09,-0.46L0.09,0L0.17,0L0.17,-0.46L0.09,-0.46ZM0.075,-0.65C0.075,-0.635 0.081,-0.623 0.092,-0.612C0.102,-0.6 0.115,-0.595 0.13,-0.595C0.145,-0.595 0.158,-0.6 0.169,-0.612C0.18,-0.623 0.185,-0.635 0.185,-0.65C0.185,-0.665 0.18,-0.678 0.169,-0.689C0.158,-0.7 0.145,-0.705 0.13,-0.705C0.115,-0.705 0.102,-0.7 0.092,-0.689C0.081,-0.678 0.075,-0.665 0.075,-0.65Z" style="fill-rule:nonzero;"/>
                </g>
                <g transform="matrix(12,0,0,12,328.84,97.2334)">
                    <path d="M0.155,-0.18L0.155,-0.46L0.075,-0.46L0.075,-0.17C0.075,-0.111 0.09,-0.066 0.119,-0.036C0.148,-0.005 0.186,0.01 0.233,0.01C0.263,0.01 0.29,0.003 0.314,-0.013C0.337,-0.028 0.356,-0.048 0.37,-0.073L0.37,0L0.45,0L0.45,-0.46L0.37,-0.46L0.37,-0.18C0.37,-0.147 0.359,-0.12 0.338,-0.098C0.317,-0.076 0.288,-0.065 0.253,-0.065C0.188,-0.065 0.155,-0.103 0.155,-0.18Z" style="fill-rule:nonzero;"/>
                </g>
                <g transform="matrix(12,0,0,12,335.14,97.2334)">
                    <path d="M0.705,-0.29C0.705,-0.349 0.692,-0.394 0.667,-0.425C0.641,-0.455 0.604,-0.47 0.557,-0.47C0.526,-0.47 0.499,-0.462 0.474,-0.447C0.449,-0.432 0.43,-0.411 0.415,-0.384C0.393,-0.441 0.349,-0.47 0.282,-0.47C0.253,-0.47 0.228,-0.463 0.207,-0.449C0.186,-0.435 0.168,-0.416 0.155,-0.393L0.155,-0.46L0.075,-0.46L0.075,0L0.155,0L0.155,-0.28C0.155,-0.313 0.164,-0.341 0.183,-0.363C0.201,-0.384 0.227,-0.395 0.262,-0.395C0.295,-0.395 0.318,-0.385 0.331,-0.366C0.343,-0.347 0.35,-0.318 0.35,-0.28L0.35,0L0.43,0L0.43,-0.28C0.43,-0.313 0.439,-0.341 0.458,-0.363C0.476,-0.384 0.502,-0.395 0.537,-0.395C0.57,-0.395 0.592,-0.385 0.606,-0.366C0.619,-0.347 0.625,-0.318 0.625,-0.28L0.625,0L0.705,0L0.705,-0.29Z" style="fill-rule:nonzero;"/>
                </g>
            </g>
            <g transform="matrix(5.4878,0,0,5.4878,-1051.31,-239.901)">
                <g transform="matrix(12,0,0,12,248.656,97.2334)">
                    <path d="M0.262,-0.684L0.306,-0.75C0.299,-0.76 0.288,-0.769 0.273,-0.778C0.258,-0.786 0.239,-0.79 0.218,-0.79C0.176,-0.79 0.143,-0.777 0.12,-0.751C0.097,-0.725 0.085,-0.685 0.085,-0.63L0.085,-0.46L0.04,-0.46L0.04,-0.385L0.085,-0.385L0.085,0L0.165,0L0.165,-0.385L0.27,-0.385L0.27,-0.46L0.165,-0.46L0.165,-0.62C0.165,-0.653 0.169,-0.677 0.178,-0.69C0.187,-0.703 0.198,-0.71 0.213,-0.71C0.221,-0.71 0.23,-0.708 0.239,-0.706C0.248,-0.703 0.255,-0.695 0.262,-0.684Z" style="fill-rule:nonzero;"/>
                </g>
                <g transform="matrix(12,0,0,12,252.088,97.2334)">
                    <path d="M0.108,-0.605C0.108,-0.59 0.113,-0.578 0.124,-0.567C0.135,-0.556 0.147,-0.55 0.162,-0.55C0.177,-0.55 0.191,-0.556 0.202,-0.567C0.213,-0.578 0.218,-0.59 0.218,-0.605C0.218,-0.62 0.213,-0.633 0.202,-0.644C0.191,-0.655 0.177,-0.66 0.162,-0.66C0.147,-0.66 0.135,-0.655 0.124,-0.644C0.113,-0.633 0.108,-0.62 0.108,-0.605ZM0.308,-0.605C0.308,-0.59 0.313,-0.578 0.324,-0.567C0.335,-0.556 0.347,-0.55 0.362,-0.55C0.377,-0.55 0.391,-0.556 0.402,-0.567C0.413,-0.578 0.418,-0.59 0.418,-0.605C0.418,-0.62 0.413,-0.633 0.402,-0.644C0.391,-0.655 0.377,-0.66 0.362,-0.66C0.347,-0.66 0.335,-0.655 0.324,-0.644C0.313,-0.633 0.308,-0.62 0.308,-0.605ZM0.155,-0.18L0.155,-0.46L0.075,-0.46L0.075,-0.17C0.075,-0.111 0.09,-0.066 0.119,-0.036C0.148,-0.005 0.186,0.01 0.233,0.01C0.261,0.01 0.287,0.004 0.311,-0.009C0.334,-0.022 0.354,-0.039 0.37,-0.062L0.37,0L0.45,0L0.45,-0.46L0.37,-0.46L0.37,-0.18C0.37,-0.147 0.359,-0.12 0.338,-0.098C0.317,-0.076 0.288,-0.065 0.253,-0.065C0.188,-0.065 0.155,-0.103 0.155,-0.18Z" style="fill-rule:nonzero;"/>
                </g>
                <g transform="matrix(12,0,0,12,258.388,97.2334)">
                    <path d="M0.294,-0.372L0.338,-0.438C0.326,-0.451 0.313,-0.459 0.299,-0.464C0.284,-0.468 0.269,-0.47 0.252,-0.47C0.235,-0.47 0.218,-0.464 0.201,-0.453C0.184,-0.442 0.168,-0.426 0.155,-0.407L0.155,-0.46L0.075,-0.46L0.075,0L0.155,0L0.155,-0.28C0.155,-0.313 0.16,-0.341 0.171,-0.363C0.182,-0.384 0.202,-0.395 0.232,-0.395C0.245,-0.395 0.256,-0.393 0.265,-0.39C0.274,-0.386 0.283,-0.38 0.294,-0.372Z" style="fill-rule:nonzero;"/>
                </g>
            </g>
            <g transform="matrix(5.4878,0,0,5.4878,-1049.64,-168.73)">
                <g transform="matrix(12,0,0,12,248.656,97.2334)">
                    <path d="M0.035,-0.62L0.383,-0.62L0.015,0L0.505,0L0.505,-0.08L0.157,-0.08L0.525,-0.7L0.035,-0.7L0.035,-0.62Z" style="fill-rule:nonzero;"/>
                </g>
                <g transform="matrix(12,0,0,12,254.836,97.2334)">
                    <path d="M0.155,-0.18L0.155,-0.46L0.075,-0.46L0.075,-0.17C0.075,-0.111 0.09,-0.066 0.119,-0.036C0.148,-0.005 0.186,0.01 0.233,0.01C0.263,0.01 0.29,0.003 0.314,-0.013C0.337,-0.028 0.356,-0.048 0.37,-0.073L0.37,0L0.45,0L0.45,-0.46L0.37,-0.46L0.37,-0.18C0.37,-0.147 0.359,-0.12 0.338,-0.098C0.317,-0.076 0.288,-0.065 0.253,-0.065C0.188,-0.065 0.155,-0.103 0.155,-0.18Z" style="fill-rule:nonzero;"/>
                </g>
                <g transform="matrix(12,0,0,12,261.136,97.2334)">
                    <path d="M0.32,-0.46L0.15,-0.298L0.15,-0.78L0.07,-0.78L0.07,0L0.15,0L0.15,-0.233L0.34,0L0.44,0L0.22,-0.27L0.42,-0.46L0.32,-0.46Z" style="fill-rule:nonzero;"/>
                </g>
                <g transform="matrix(12,0,0,12,266.296,97.2334)">
                    <path d="M0.155,-0.18L0.155,-0.46L0.075,-0.46L0.075,-0.17C0.075,-0.111 0.09,-0.066 0.119,-0.036C0.148,-0.005 0.186,0.01 0.233,0.01C0.263,0.01 0.29,0.003 0.314,-0.013C0.337,-0.028 0.356,-0.048 0.37,-0.073L0.37,0L0.45,0L0.45,-0.46L0.37,-0.46L0.37,-0.18C0.37,-0.147 0.359,-0.12 0.338,-0.098C0.317,-0.076 0.288,-0.065 0.253,-0.065C0.188,-0.065 0.155,-0.103 0.155,-0.18Z" style="fill-rule:nonzero;"/>
                </g>
                <g transform="matrix(12,0,0,12,272.596,97.2334)">
                    <path d="M0.37,-0.28L0.37,0L0.45,0L0.45,-0.29C0.45,-0.349 0.436,-0.394 0.407,-0.425C0.378,-0.455 0.339,-0.47 0.292,-0.47C0.262,-0.47 0.235,-0.463 0.212,-0.448C0.188,-0.432 0.169,-0.412 0.155,-0.387L0.155,-0.46L0.075,-0.46L0.075,0L0.155,0L0.155,-0.28C0.155,-0.313 0.166,-0.341 0.188,-0.363C0.209,-0.384 0.237,-0.395 0.272,-0.395C0.337,-0.395 0.37,-0.357 0.37,-0.28Z" style="fill-rule:nonzero;"/>
                </g>
                <g transform="matrix(12,0,0,12,278.896,97.2334)">
                    <path d="M0.262,-0.684L0.306,-0.75C0.299,-0.76 0.288,-0.769 0.273,-0.778C0.258,-0.786 0.239,-0.79 0.218,-0.79C0.176,-0.79 0.143,-0.777 0.12,-0.751C0.097,-0.725 0.085,-0.685 0.085,-0.63L0.085,-0.46L0.04,-0.46L0.04,-0.385L0.085,-0.385L0.085,0L0.165,0L0.165,-0.385L0.27,-0.385L0.27,-0.46L0.165,-0.46L0.165,-0.62C0.165,-0.653 0.169,-0.677 0.178,-0.69C0.187,-0.703 0.198,-0.71 0.213,-0.71C0.221,-0.71 0.23,-0.708 0.239,-0.706C0.248,-0.703 0.255,-0.695 0.262,-0.684Z" style="fill-rule:nonzero;"/>
                </g>
                <g transform="matrix(12,0,0,12,282.328,97.2334)">
                    <path d="M0.08,-0.62L0.08,-0.46L0.005,-0.46L0.005,-0.385L0.08,-0.385L0.08,0L0.16,0L0.16,-0.385L0.235,-0.385L0.235,-0.46L0.16,-0.46L0.16,-0.62L0.08,-0.62Z" style="fill-rule:nonzero;"/>
                </g>
            </g>
        </g>
    </g>
</svg>
